<svg id="Light" enable-background="new 0 0 24 24" height="512" viewBox="0 0 24 24" width="512" xmlns="http://www.w3.org/2000/svg"><path d="m12.5 14.5h-2.5c-.276 0-.5.224-.5.5s.224.5.5.5h1.5v1c0 .276.224.5.5.5s.5-.224.5-.5v-1c1.103 0 2-.897 2-2s-.897-2-2-2h-1c-.551 0-1-.448-1-1s.449-1 1-1h2.5c.276 0 .5-.224.5-.5s-.224-.5-.5-.5h-1.5v-1c0-.276-.224-.5-.5-.5s-.5.224-.5.5v1c-1.103 0-2 .897-2 2s.897 2 2 2h1c.551 0 1 .448 1 1s-.449 1-1 1z"/><path d="m12 23c6.065 0 11-4.935 11-11s-4.935-11-11-11-11 4.935-11 11 4.935 11 11 11zm0-21c5.514 0 10 4.486 10 10s-4.486 10-10 10-10-4.486-10-10 4.486-10 10-10z"/></svg>